# xmcd
#
# Track frame offsets:
#	150
#	16435
#	33722
#	50207
#	69221
#	83373
#	103086
#	136997
#	170320
#	202735
#	220742
#	240382
#	259240
#	277350
#	299772
#	314212
#
# Disc length: 4482 seconds
#
# Revision: 1
# Processed by: cddbd v1.5.2PL0 Copyright (c) Steve Scherf et al.
# Submitted via: audiograbber 1.83.01
#
DISCID=f5118010
DTITLE=Eric Clapton - Eric Clapton Story
DYEAR=1900
DGENRE=Blues
TTITLE0=Cocaine
TTITLE1=Lay down Sally
TTITLE2=Wonderful tonight
TTITLE3=Crossroads
TTITLE4=After midnight
TTITLE5=I shot the sheriff
TTITLE6=Further on up the road (live)
TTITLE7=Rambling on my mind (live)
TTITLE8=Layla
TTITLE9=Next time you see her
TTITLE10=Knockin'on heaven's door
TTITLE11=Sunshine of your love
TTITLE12=Tulsa time (live)
TTITLE13=Let it grow
TTITLE14=Steady rollin man
TTITLE15=Have you ever loved a women? (live)
EXTD=
EXTT0=
EXTT1=
EXTT2=
EXTT3=
EXTT4=
EXTT5=
EXTT6=
EXTT7=
EXTT8=
EXTT9=
EXTT10=
EXTT11=
EXTT12=
EXTT13=
EXTT14=
EXTT15=
PLAYORDER=
